%TF.GenerationSoftware,KiCad,Pcbnew,9.0.2*%
%TF.CreationDate,2026-01-08T05:14:17-05:00*%
%TF.ProjectId,Athena_V1,41746865-6e61-45f5-9631-2e6b69636164,rev?*%
%TF.SameCoordinates,Original*%
%TF.FileFunction,Soldermask,Top*%
%TF.FilePolarity,Negative*%
%FSLAX46Y46*%
G04 Gerber Fmt 4.6, Leading zero omitted, Abs format (unit mm)*
G04 Created by KiCad (PCBNEW 9.0.2) date 2026-01-08 05:14:17*
%MOMM*%
%LPD*%
G01*
G04 APERTURE LIST*
G04 Aperture macros list*
%AMRoundRect*
0 Rectangle with rounded corners*
0 $1 Rounding radius*
0 $2 $3 $4 $5 $6 $7 $8 $9 X,Y pos of 4 corners*
0 Add a 4 corners polygon primitive as box body*
4,1,4,$2,$3,$4,$5,$6,$7,$8,$9,$2,$3,0*
0 Add four circle primitives for the rounded corners*
1,1,$1+$1,$2,$3*
1,1,$1+$1,$4,$5*
1,1,$1+$1,$6,$7*
1,1,$1+$1,$8,$9*
0 Add four rect primitives between the rounded corners*
20,1,$1+$1,$2,$3,$4,$5,0*
20,1,$1+$1,$4,$5,$6,$7,0*
20,1,$1+$1,$6,$7,$8,$9,0*
20,1,$1+$1,$8,$9,$2,$3,0*%
G04 Aperture macros list end*
%ADD10C,1.397000*%
%ADD11C,3.000000*%
%ADD12C,5.100000*%
%ADD13RoundRect,0.200000X1.075000X1.075000X-1.075000X1.075000X-1.075000X-1.075000X1.075000X-1.075000X0*%
%ADD14R,1.800000X1.500000*%
%ADD15RoundRect,0.200000X1.303134X0.783002X-0.783002X1.303134X-1.303134X-0.783002X0.783002X-1.303134X0*%
%ADD16R,1.500000X1.800000*%
%ADD17C,3.200000*%
%ADD18RoundRect,0.200000X0.783002X1.303134X-1.303134X0.783002X-0.783002X-1.303134X1.303134X-0.783002X0*%
%ADD19RoundRect,0.200000X1.289270X0.805625X-0.805625X1.289270X-1.289270X-0.805625X0.805625X-1.289270X0*%
%ADD20C,1.800000*%
%ADD21C,1.200000*%
%ADD22R,2.100000X1.200000*%
G04 APERTURE END LIST*
D10*
%TO.C,J3*%
X230508920Y-151800000D03*
X233048920Y-151800000D03*
X235588920Y-151800000D03*
X238128920Y-151800000D03*
%TD*%
D11*
%TO.C,SW69*%
X110071420Y-96850000D03*
D12*
X112671420Y-91100000D03*
D11*
X117071420Y-95800000D03*
D13*
X120308920Y-95800000D03*
X106833920Y-96850000D03*
%TD*%
D14*
%TO.C,D31*%
X362108920Y-154300000D03*
X365508920Y-154300000D03*
%TD*%
%TO.C,D28*%
X361908920Y-110800000D03*
X365308920Y-110800000D03*
%TD*%
D11*
%TO.C,SW4*%
X173327307Y-172781529D03*
D12*
X177241127Y-167831326D03*
D11*
X180373395Y-173456173D03*
D15*
X183514728Y-174239394D03*
X170185975Y-171998307D03*
%TD*%
D14*
%TO.C,D74*%
X124308920Y-124800000D03*
X127708920Y-124800000D03*
%TD*%
D11*
%TO.C,SW62*%
X70071420Y-118850000D03*
D12*
X72671420Y-113100000D03*
D11*
X77071420Y-117800000D03*
D13*
X80308920Y-117800000D03*
X66833920Y-118850000D03*
%TD*%
D14*
%TO.C,D18*%
X321608920Y-100300000D03*
X325008920Y-100300000D03*
%TD*%
D11*
%TO.C,SW5*%
X257662500Y-105750000D03*
D12*
X260262500Y-100000000D03*
D11*
X264662500Y-104700000D03*
D13*
X267900000Y-104700000D03*
X254425000Y-105750000D03*
%TD*%
D14*
%TO.C,D32*%
X313608920Y-171300000D03*
X317008920Y-171300000D03*
%TD*%
D11*
%TO.C,SW13*%
X296800000Y-97050000D03*
D12*
X299400000Y-91300000D03*
D11*
X303800000Y-96000000D03*
D13*
X307037500Y-96000000D03*
X293562500Y-97050000D03*
%TD*%
D11*
%TO.C,SW25*%
X336800000Y-139550000D03*
D12*
X339400000Y-133800000D03*
D11*
X343800000Y-138500000D03*
D13*
X347037500Y-138500000D03*
X333562500Y-139550000D03*
%TD*%
D11*
%TO.C,SW12*%
X277162500Y-158250000D03*
D12*
X279762500Y-152500000D03*
D11*
X284162500Y-157200000D03*
D13*
X287400000Y-157200000D03*
X273925000Y-158250000D03*
%TD*%
D11*
%TO.C,SW64*%
X50071420Y-165850000D03*
D12*
X52671420Y-160100000D03*
D11*
X57071420Y-164800000D03*
D13*
X60308920Y-164800000D03*
X46833920Y-165850000D03*
%TD*%
D11*
%TO.C,SW75*%
X129708920Y-138550000D03*
D12*
X132308920Y-132800000D03*
D11*
X136708920Y-137500000D03*
D13*
X139946420Y-137500000D03*
X126471420Y-138550000D03*
%TD*%
D16*
%TO.C,D2*%
X116308920Y-172100000D03*
X116308920Y-175500000D03*
%TD*%
D14*
%TO.C,D80*%
X143108920Y-154300000D03*
X146508920Y-154300000D03*
%TD*%
D11*
%TO.C,SW19*%
X316650547Y-113919962D03*
D12*
X319250547Y-108169962D03*
D11*
X323650547Y-112869962D03*
D13*
X326888047Y-112869962D03*
X313413047Y-113919962D03*
%TD*%
D16*
%TO.C,D1*%
X97308920Y-171000000D03*
X97308920Y-167600000D03*
%TD*%
D11*
%TO.C,SW28*%
X356800000Y-106050000D03*
D12*
X359400000Y-100300000D03*
D11*
X363800000Y-105000000D03*
D13*
X367037500Y-105000000D03*
X353562500Y-106050000D03*
%TD*%
D11*
%TO.C,SW20*%
X316650547Y-133498360D03*
D12*
X319250547Y-127748360D03*
D11*
X323650547Y-132448360D03*
D13*
X326888047Y-132448360D03*
X313413047Y-133498360D03*
%TD*%
D14*
%TO.C,D19*%
X321608920Y-121800000D03*
X325008920Y-121800000D03*
%TD*%
D11*
%TO.C,SW72*%
X110071420Y-155350000D03*
D12*
X112671420Y-149600000D03*
D11*
X117071420Y-154300000D03*
D13*
X120308920Y-154300000D03*
X106833920Y-155350000D03*
%TD*%
D11*
%TO.C,SW24*%
X336800000Y-119050000D03*
D12*
X339400000Y-113300000D03*
D11*
X343800000Y-118000000D03*
D13*
X347037500Y-118000000D03*
X333562500Y-119050000D03*
%TD*%
D11*
%TO.C,SW21*%
X316662500Y-153250000D03*
D12*
X319262500Y-147500000D03*
D11*
X323662500Y-152200000D03*
D13*
X326900000Y-152200000D03*
X313425000Y-153250000D03*
%TD*%
D14*
%TO.C,D8*%
X263108920Y-153350000D03*
X266508920Y-153350000D03*
%TD*%
%TO.C,D70*%
X104608920Y-122300000D03*
X108008920Y-122300000D03*
%TD*%
D11*
%TO.C,SW76*%
X129708920Y-158050000D03*
D12*
X132308920Y-152300000D03*
D11*
X136708920Y-157000000D03*
D13*
X139946420Y-157000000D03*
X126471420Y-158050000D03*
%TD*%
D11*
%TO.C,SW15*%
X296800000Y-136050000D03*
D12*
X299400000Y-130300000D03*
D11*
X303800000Y-135000000D03*
D13*
X307037500Y-135000000D03*
X293562500Y-136050000D03*
%TD*%
D14*
%TO.C,D58*%
X50508920Y-130800000D03*
X47108920Y-130800000D03*
%TD*%
%TO.C,D57*%
X50308920Y-111300000D03*
X46908920Y-111300000D03*
%TD*%
%TO.C,D61*%
X65108920Y-104300000D03*
X68508920Y-104300000D03*
%TD*%
%TO.C,D25*%
X342108920Y-145800000D03*
X345508920Y-145800000D03*
%TD*%
%TO.C,D77*%
X143308920Y-110800000D03*
X146708920Y-110800000D03*
%TD*%
D17*
%TO.C,Hole Ahead*%
X366000000Y-139000000D03*
%TD*%
D14*
%TO.C,D29*%
X362108920Y-132300000D03*
X365508920Y-132300000D03*
%TD*%
%TO.C,D11*%
X282408920Y-145250000D03*
X285808920Y-145250000D03*
%TD*%
D11*
%TO.C,SW7*%
X257662500Y-144750000D03*
D12*
X260262500Y-139000000D03*
D11*
X264662500Y-143700000D03*
D13*
X267900000Y-143700000D03*
X254425000Y-144750000D03*
%TD*%
D11*
%TO.C,SW77*%
X149208920Y-105550000D03*
D12*
X151808920Y-99800000D03*
D11*
X156208920Y-104500000D03*
D13*
X159446420Y-104500000D03*
X145971420Y-105550000D03*
%TD*%
D14*
%TO.C,D72*%
X103608920Y-146300000D03*
X107008920Y-146300000D03*
%TD*%
%TO.C,D73*%
X124108920Y-104300000D03*
X127508920Y-104300000D03*
%TD*%
D11*
%TO.C,SW9*%
X277162500Y-99750000D03*
D12*
X279762500Y-94000000D03*
D11*
X284162500Y-98700000D03*
D13*
X287400000Y-98700000D03*
X273925000Y-99750000D03*
%TD*%
D14*
%TO.C,D63*%
X64608920Y-146300000D03*
X68008920Y-146300000D03*
%TD*%
D11*
%TO.C,SW6*%
X257662500Y-125250000D03*
D12*
X260262500Y-119500000D03*
D11*
X264662500Y-124200000D03*
D13*
X267900000Y-124200000D03*
X254425000Y-125250000D03*
%TD*%
D11*
%TO.C,SW32*%
X308368281Y-177208198D03*
D12*
X309500000Y-171000000D03*
D11*
X314906335Y-174495933D03*
D18*
X318047667Y-173712712D03*
X305226949Y-177991421D03*
%TD*%
D11*
%TO.C,SW78*%
X149208920Y-125050000D03*
D12*
X151808920Y-119300000D03*
D11*
X156208920Y-124000000D03*
D13*
X159446420Y-124000000D03*
X145971420Y-125050000D03*
%TD*%
D14*
%TO.C,D6*%
X263108920Y-130200000D03*
X266508920Y-130200000D03*
%TD*%
D11*
%TO.C,SW29*%
X356800000Y-126050000D03*
D12*
X359400000Y-120300000D03*
D11*
X363800000Y-125000000D03*
D13*
X367037500Y-125000000D03*
X353562500Y-126050000D03*
%TD*%
D11*
%TO.C,SW57*%
X50071420Y-105850000D03*
D12*
X52671420Y-100100000D03*
D11*
X57071420Y-104800000D03*
D13*
X60308920Y-104800000D03*
X46833920Y-105850000D03*
%TD*%
D11*
%TO.C,SW68*%
X90208920Y-153050000D03*
D12*
X92808920Y-147300000D03*
D11*
X97208920Y-152000000D03*
D13*
X100446420Y-152000000D03*
X86971420Y-153050000D03*
%TD*%
D14*
%TO.C,D26*%
X342108920Y-148350000D03*
X345508920Y-148350000D03*
%TD*%
%TO.C,D65*%
X85108920Y-99800000D03*
X88508920Y-99800000D03*
%TD*%
%TO.C,D7*%
X263108920Y-150800000D03*
X266508920Y-150800000D03*
%TD*%
D11*
%TO.C,SW80*%
X149208920Y-164050000D03*
D12*
X151808920Y-158300000D03*
D11*
X156208920Y-163000000D03*
D13*
X159446420Y-163000000D03*
X145971420Y-164050000D03*
%TD*%
D11*
%TO.C,SW67*%
X90220873Y-133298360D03*
D12*
X92820873Y-127548360D03*
D11*
X97220873Y-132248360D03*
D13*
X100458373Y-132248360D03*
X86983373Y-133298360D03*
%TD*%
D14*
%TO.C,D12*%
X282408920Y-147800000D03*
X285808920Y-147800000D03*
%TD*%
%TO.C,D15*%
X301608920Y-142750000D03*
X305008920Y-142750000D03*
%TD*%
D11*
%TO.C,SW79*%
X149208920Y-144550000D03*
D12*
X151808920Y-138800000D03*
D11*
X156208920Y-143500000D03*
D13*
X159446420Y-143500000D03*
X145971420Y-144550000D03*
%TD*%
D11*
%TO.C,SW65*%
X90270691Y-94041929D03*
D12*
X92870691Y-88291929D03*
D11*
X97270691Y-92991929D03*
D13*
X100508191Y-92991929D03*
X87033191Y-94041929D03*
%TD*%
D11*
%TO.C,SW10*%
X277162500Y-119250000D03*
D12*
X279762500Y-113500000D03*
D11*
X284162500Y-118200000D03*
D13*
X287400000Y-118200000D03*
X273925000Y-119250000D03*
%TD*%
D11*
%TO.C,SW73*%
X129708920Y-99550000D03*
D12*
X132308920Y-93800000D03*
D11*
X136708920Y-98500000D03*
D13*
X139946420Y-98500000D03*
X126471420Y-99550000D03*
%TD*%
D17*
%TO.C,Hole Ahead*%
X46000000Y-94500000D03*
%TD*%
D14*
%TO.C,D13*%
X300908920Y-102650000D03*
X304308920Y-102650000D03*
%TD*%
%TO.C,D66*%
X84608920Y-118800000D03*
X88008920Y-118800000D03*
%TD*%
D11*
%TO.C,SW16*%
X296800000Y-155550000D03*
D12*
X299400000Y-149800000D03*
D11*
X303800000Y-154500000D03*
D13*
X307037500Y-154500000D03*
X293562500Y-155550000D03*
%TD*%
D14*
%TO.C,D23*%
X342108920Y-104800000D03*
X345508920Y-104800000D03*
%TD*%
%TO.C,D75*%
X124808920Y-145300000D03*
X128208920Y-145300000D03*
%TD*%
D11*
%TO.C,SW11*%
X277162500Y-138750000D03*
D12*
X279762500Y-133000000D03*
D11*
X284162500Y-137700000D03*
D13*
X287400000Y-137700000D03*
X273925000Y-138750000D03*
%TD*%
D11*
%TO.C,SW8*%
X257662500Y-164250000D03*
D12*
X260262500Y-158500000D03*
D11*
X264662500Y-163200000D03*
D13*
X267900000Y-163200000D03*
X254425000Y-164250000D03*
%TD*%
D14*
%TO.C,D5*%
X262608920Y-110300000D03*
X266008920Y-110300000D03*
%TD*%
D17*
%TO.C,Hole Ahead*%
X276000000Y-164500000D03*
%TD*%
D14*
%TO.C,D79*%
X143108920Y-149800000D03*
X146508920Y-149800000D03*
%TD*%
D11*
%TO.C,SW18*%
X316600729Y-94241929D03*
D12*
X319200729Y-88491929D03*
D11*
X323600729Y-93191929D03*
D13*
X326838229Y-93191929D03*
X313363229Y-94241929D03*
%TD*%
D11*
%TO.C,SW26*%
X336800000Y-159550000D03*
D12*
X339400000Y-153800000D03*
D11*
X343800000Y-158500000D03*
D13*
X347037500Y-158500000D03*
X333562500Y-159550000D03*
%TD*%
D14*
%TO.C,D69*%
X105608920Y-102800000D03*
X109008920Y-102800000D03*
%TD*%
D17*
%TO.C,Hole Ahead*%
X46000000Y-136500000D03*
%TD*%
D14*
%TO.C,D60*%
X64808920Y-150800000D03*
X68208920Y-150800000D03*
%TD*%
%TO.C,D68*%
X81608920Y-148300000D03*
X85008920Y-148300000D03*
%TD*%
%TO.C,D14*%
X302108920Y-122200000D03*
X305508920Y-122200000D03*
%TD*%
D17*
%TO.C,Hole Ahead*%
X312000000Y-108000000D03*
%TD*%
D16*
%TO.C,D3*%
X140808920Y-178600000D03*
X140808920Y-182000000D03*
%TD*%
D10*
%TO.C,J3*%
X173188920Y-151800000D03*
X175728920Y-151800000D03*
X178268920Y-151800000D03*
X180808920Y-151800000D03*
%TD*%
D11*
%TO.C,SW17*%
X233698575Y-174239523D03*
D12*
X234830293Y-168031326D03*
D11*
X240236627Y-171527260D03*
D18*
X243377960Y-170744037D03*
X230557244Y-175022745D03*
%TD*%
D14*
%TO.C,D9*%
X282408920Y-105250000D03*
X285808920Y-105250000D03*
%TD*%
%TO.C,D27*%
X294800000Y-175500000D03*
X298200000Y-175500000D03*
%TD*%
D17*
%TO.C,Hole Ahead*%
X365000000Y-94500000D03*
%TD*%
D11*
%TO.C,SW23*%
X336800000Y-99050000D03*
D12*
X339400000Y-93300000D03*
D11*
X343800000Y-98000000D03*
D13*
X347037500Y-98000000D03*
X333562500Y-99050000D03*
%TD*%
D11*
%TO.C,SW58*%
X50071420Y-125850000D03*
D12*
X52671420Y-120100000D03*
D11*
X57071420Y-124800000D03*
D13*
X60308920Y-124800000D03*
X46833920Y-125850000D03*
%TD*%
D11*
%TO.C,SW1*%
X100086564Y-176405833D03*
D12*
X103913396Y-171388078D03*
D11*
X107143355Y-176957402D03*
D19*
X110297878Y-177685682D03*
X96932041Y-175677555D03*
%TD*%
D11*
%TO.C,SW74*%
X129708920Y-119050000D03*
D12*
X132308920Y-113300000D03*
D11*
X136708920Y-118000000D03*
D13*
X139946420Y-118000000D03*
X126471420Y-119050000D03*
%TD*%
D14*
%TO.C,D59*%
X50008920Y-151300000D03*
X46608920Y-151300000D03*
%TD*%
%TO.C,D30*%
X362108920Y-151750000D03*
X365508920Y-151750000D03*
%TD*%
%TO.C,D22*%
X269608920Y-182300000D03*
X273008920Y-182300000D03*
%TD*%
%TO.C,D62*%
X65108920Y-125300000D03*
X68508920Y-125300000D03*
%TD*%
%TO.C,D24*%
X342108920Y-125300000D03*
X345508920Y-125300000D03*
%TD*%
D11*
%TO.C,SW2*%
X118313482Y-180886486D03*
D12*
X122227302Y-175936283D03*
D11*
X125359570Y-181561129D03*
D15*
X128500903Y-182344351D03*
X115172150Y-180103264D03*
%TD*%
D16*
%TO.C,D4*%
X170808920Y-164100000D03*
X170808920Y-167500000D03*
%TD*%
D11*
%TO.C,SW66*%
X90220873Y-113719962D03*
D12*
X92820873Y-107969962D03*
D11*
X97220873Y-112669962D03*
D13*
X100458373Y-112669962D03*
X86983373Y-113719962D03*
%TD*%
D17*
%TO.C,Hole Ahead*%
X173000000Y-114000000D03*
%TD*%
D11*
%TO.C,SW71*%
X110071420Y-135850000D03*
D12*
X112671420Y-130100000D03*
D11*
X117071420Y-134800000D03*
D13*
X120308920Y-134800000D03*
X106833920Y-135850000D03*
%TD*%
D14*
%TO.C,D20*%
X321608920Y-140800000D03*
X325008920Y-140800000D03*
%TD*%
%TO.C,D64*%
X49308920Y-155300000D03*
X45908920Y-155300000D03*
%TD*%
D11*
%TO.C,SW59*%
X50071420Y-145850000D03*
D12*
X52671420Y-140100000D03*
D11*
X57071420Y-144800000D03*
D13*
X60308920Y-144800000D03*
X46833920Y-145850000D03*
%TD*%
D17*
%TO.C,Hole Ahead*%
X238500000Y-117000000D03*
%TD*%
D11*
%TO.C,SW30*%
X356800000Y-146050000D03*
D12*
X359400000Y-140300000D03*
D11*
X363800000Y-145000000D03*
D13*
X367037500Y-145000000D03*
X353562500Y-146050000D03*
%TD*%
D11*
%TO.C,SW60*%
X70071420Y-159350000D03*
D12*
X72671420Y-153600000D03*
D11*
X77071420Y-158300000D03*
D13*
X80308920Y-158300000D03*
X66833920Y-159350000D03*
%TD*%
D11*
%TO.C,SW27*%
X288712400Y-182344480D03*
D12*
X289844118Y-176136283D03*
D11*
X295250452Y-179632216D03*
D18*
X298391785Y-178848994D03*
X285571069Y-183127702D03*
%TD*%
D14*
%TO.C,D78*%
X142808920Y-130800000D03*
X146208920Y-130800000D03*
%TD*%
D11*
%TO.C,SW63*%
X70071420Y-139350000D03*
D12*
X72671420Y-133600000D03*
D11*
X77071420Y-138300000D03*
D13*
X80308920Y-138300000D03*
X66833920Y-139350000D03*
%TD*%
D14*
%TO.C,D67*%
X83108920Y-142800000D03*
X86508920Y-142800000D03*
%TD*%
D11*
%TO.C,SW70*%
X110071420Y-116350000D03*
D12*
X112671420Y-110600000D03*
D11*
X117071420Y-115300000D03*
D13*
X120308920Y-115300000D03*
X106833920Y-116350000D03*
%TD*%
D14*
%TO.C,D71*%
X103608920Y-140800000D03*
X107008920Y-140800000D03*
%TD*%
D11*
%TO.C,SW14*%
X296800000Y-116550000D03*
D12*
X299400000Y-110800000D03*
D11*
X303800000Y-115500000D03*
D13*
X307037500Y-115500000D03*
X293562500Y-116550000D03*
%TD*%
D11*
%TO.C,SW22*%
X263257801Y-188662920D03*
D12*
X264389519Y-182454723D03*
D11*
X269795853Y-185950656D03*
D18*
X272937186Y-185167434D03*
X260116470Y-189446142D03*
%TD*%
D17*
%TO.C,Hole Ahead*%
X137500000Y-167000000D03*
%TD*%
D11*
%TO.C,SW61*%
X70071420Y-98850000D03*
D12*
X72671420Y-93100000D03*
D11*
X77071420Y-97800000D03*
D13*
X80308920Y-97800000D03*
X66833920Y-98850000D03*
%TD*%
D14*
%TO.C,D10*%
X282408920Y-124750000D03*
X285808920Y-124750000D03*
%TD*%
%TO.C,D76*%
X124808920Y-150800000D03*
X128208920Y-150800000D03*
%TD*%
D11*
%TO.C,SW31*%
X356800000Y-166050000D03*
D12*
X359400000Y-160300000D03*
D11*
X363800000Y-165000000D03*
D13*
X367037500Y-165000000D03*
X353562500Y-166050000D03*
%TD*%
D11*
%TO.C,SW3*%
X143768081Y-187204926D03*
D12*
X147681901Y-182254723D03*
D11*
X150814169Y-187879569D03*
D15*
X153955502Y-188662791D03*
X140626749Y-186421704D03*
%TD*%
D14*
%TO.C,D17*%
X239608920Y-167800000D03*
X243008920Y-167800000D03*
%TD*%
%TO.C,D16*%
X301608920Y-145300000D03*
X305008920Y-145300000D03*
%TD*%
D17*
%TO.C,Hole Ahead*%
X106000000Y-110000000D03*
%TD*%
D14*
%TO.C,D21*%
X321576320Y-143737591D03*
X324976320Y-143737591D03*
%TD*%
D20*
%TO.C,A\u002A\u002A*%
X167163920Y-97220000D03*
X167163920Y-137860000D03*
X182403920Y-97220000D03*
X182403920Y-137860000D03*
%TD*%
%TO.C,A\u002A\u002A*%
X229688920Y-97220000D03*
X229688920Y-137860000D03*
X244928920Y-97220000D03*
X244928920Y-137860000D03*
%TD*%
D21*
%TO.C,REF\u002A\u002A*%
X177500000Y-146300000D03*
X184500000Y-146300000D03*
D22*
X179700000Y-144200000D03*
X182700000Y-144200000D03*
X174200000Y-148400000D03*
X175700000Y-144200000D03*
%TD*%
D21*
%TO.C,REF\u002A\u002A*%
X234308920Y-146300000D03*
X227308920Y-146300000D03*
D22*
X232108920Y-148400000D03*
X229108920Y-148400000D03*
X237608920Y-144200000D03*
X236108920Y-148400000D03*
%TD*%
M02*
