%TF.GenerationSoftware,KiCad,Pcbnew,9.0.2*%
%TF.CreationDate,2026-01-08T05:14:17-05:00*%
%TF.ProjectId,Athena_V1,41746865-6e61-45f5-9631-2e6b69636164,rev?*%
%TF.SameCoordinates,Original*%
%TF.FileFunction,Profile,NP*%
%FSLAX46Y46*%
G04 Gerber Fmt 4.6, Leading zero omitted, Abs format (unit mm)*
G04 Created by KiCad (PCBNEW 9.0.2) date 2026-01-08 05:14:17*
%MOMM*%
%LPD*%
G01*
G04 APERTURE LIST*
%TA.AperFunction,Profile*%
%ADD10C,0.050000*%
%TD*%
G04 APERTURE END LIST*
D10*
X103536905Y-80926460D02*
X123536905Y-80926460D01*
X123536905Y-83426460D01*
X143036905Y-83426460D01*
X143036905Y-89426460D01*
X162536905Y-89426460D01*
X162536905Y-94426460D01*
X187536905Y-94426460D01*
X187740433Y-111929907D01*
X206036702Y-111947346D01*
X224332971Y-111964785D01*
X224536905Y-94426460D01*
X249536905Y-94426460D01*
X249536905Y-89426460D01*
X269036905Y-89426460D01*
X269036905Y-83426460D01*
X288536905Y-83426460D01*
X288536905Y-80926460D01*
X308536905Y-80926460D01*
X308536905Y-77926460D01*
X330536905Y-77926460D01*
X330536905Y-82426460D01*
X350036905Y-82426460D01*
X350036905Y-88926460D01*
X370536905Y-88926460D01*
X370536905Y-170926460D01*
X348036905Y-170926460D01*
X348036905Y-164426460D01*
X328536905Y-164426460D01*
X328536905Y-160926460D01*
X319536905Y-160926460D01*
X324036905Y-179426460D01*
X256000000Y-196490627D01*
X251000000Y-176490627D01*
X227000000Y-181990627D01*
X221500000Y-161000000D01*
X225000000Y-152500000D01*
X225000000Y-137500000D01*
X224000000Y-137500000D01*
X224179735Y-122042786D01*
X187845070Y-120928691D01*
X188036905Y-137426460D01*
X187036905Y-137426460D01*
X187036905Y-152426460D01*
X190536905Y-160926460D01*
X185036905Y-181926460D01*
X165536905Y-177426460D01*
X161036905Y-176426460D01*
X156036905Y-196426460D01*
X88036905Y-179426460D01*
X92536905Y-160926460D01*
X83536905Y-160926460D01*
X83536905Y-164426460D01*
X64036905Y-164426460D01*
X64036905Y-170926460D01*
X41536905Y-170926460D01*
X41536905Y-88926460D01*
X62036905Y-88926460D01*
X62036905Y-82426460D01*
X81536905Y-82426460D01*
X81536905Y-77926460D01*
X103536905Y-77926460D01*
X103536905Y-80926460D01*
M02*
