M48
; DRILL file {KiCad 9.0.2} date 2026-01-08T05:14:24-0500
; FORMAT={-:-/ absolute / metric / decimal}
; #@! TF.CreationDate,2026-01-08T05:14:24-05:00
; #@! TF.GenerationSoftware,Kicad,Pcbnew,9.0.2
; #@! TF.FileFunction,Plated,1,2,PTH
FMAT,2
METRIC
; #@! TA.AperFunction,Plated,PTH,ViaDrill
T1C0.300
; #@! TA.AperFunction,Plated,PTH,ComponentDrill
T2C0.400
; #@! TA.AperFunction,Plated,PTH,ComponentDrill
T3C0.500
; #@! TA.AperFunction,Plated,PTH,ComponentDrill
T4C0.813
%
G90
G05
T1
X102.809Y-159.3
X104.809Y-159.8
X118.809Y-159.3
X141.309Y-164.3
X160.809Y-158.8
X161.543Y-105.705
X162.009Y-103.602
X162.309Y-144.3
X162.309Y-168.3
X162.809Y-113.8
X162.809Y-143.535
X163.309Y-142.8
X165.259Y-99.76
X165.259Y-102.3
X165.259Y-104.84
X165.259Y-107.38
X165.259Y-115.0
X165.259Y-117.54
X165.259Y-120.08
X165.259Y-122.62
X165.259Y-125.16
X165.259Y-127.7
X165.259Y-135.32
X165.809Y-147.8
X166.649Y-141.343
X166.7Y-148.645
X167.159Y-149.3
X167.439Y-141.007
X167.545Y-128.948
X167.809Y-150.3
X168.137Y-140.617
X168.5Y-129.0
X168.684Y-141.2
X169.159Y-131.0
X169.309Y-141.7
X169.809Y-120.5
X170.309Y-142.3
X170.709Y-119.9
X171.209Y-119.0
X171.809Y-118.0
X174.0Y-136.0
X176.5Y-116.94
X176.5Y-133.5
X184.309Y-117.54
X184.309Y-120.08
X188.0Y-112.5
X188.0Y-113.0
X188.0Y-113.5
X188.0Y-114.0
X188.0Y-114.5
X188.0Y-115.0
X188.0Y-115.5
X188.0Y-116.0
X188.0Y-116.5
X188.0Y-117.0
X188.0Y-117.5
X188.0Y-118.0
X188.0Y-118.5
X188.0Y-119.0
X188.0Y-119.5
X188.0Y-120.0
X188.0Y-120.0
X224.5Y-112.5
X224.5Y-113.0
X224.5Y-113.5
X224.5Y-114.0
X224.5Y-114.5
X224.5Y-114.5
X224.5Y-115.0
X224.5Y-115.5
X224.5Y-116.0
X224.5Y-116.5
X224.5Y-116.5
X224.5Y-117.0
X224.5Y-117.5
X224.5Y-118.0
X224.5Y-118.5
X224.5Y-118.5
X224.5Y-119.0
X224.5Y-119.5
X224.5Y-120.0
X224.5Y-120.5
X224.5Y-121.0
X224.5Y-121.0
X224.5Y-121.5
X227.784Y-127.7
X234.809Y-106.8
X235.809Y-108.8
X237.309Y-109.8
X238.5Y-174.0
X238.809Y-109.8
X240.309Y-109.8
X243.378Y-170.744
X244.5Y-164.0
X246.309Y-167.3
X246.309Y-168.3
X246.559Y-166.05
X246.809Y-164.8
X246.834Y-117.54
X246.834Y-120.08
X247.309Y-127.8
X247.309Y-163.8
X253.809Y-177.8
X254.425Y-105.75
X254.425Y-125.25
X254.425Y-144.75
X254.425Y-164.25
X254.5Y-161.0
X260.116Y-189.446
X267.9Y-104.7
X267.9Y-124.2
X267.9Y-143.7
X267.9Y-163.2
X272.937Y-185.167
X273.925Y-99.75
X273.925Y-119.25
X273.925Y-138.75
X273.925Y-158.25
X281.0Y-178.0
X285.309Y-176.8
X285.571Y-183.128
X287.4Y-98.7
X287.4Y-118.2
X287.4Y-137.7
X287.4Y-157.2
X292.0Y-184.0
X293.562Y-97.05
X293.562Y-116.55
X293.562Y-136.05
X293.562Y-155.55
X298.5Y-179.0
X305.227Y-177.991
X307.037Y-96.0
X307.037Y-115.5
X307.037Y-135.0
X307.037Y-154.5
X313.413Y-113.92
X313.413Y-133.498
X313.5Y-153.5
X318.048Y-173.713
X326.838Y-93.192
X326.888Y-112.87
X326.888Y-132.448
X326.9Y-152.2
X333.562Y-99.05
X333.562Y-119.05
X333.562Y-139.55
X333.562Y-159.55
X347.037Y-98.0
X347.037Y-118.0
X347.037Y-138.5
X347.037Y-158.5
X367.0Y-105.0
X367.0Y-145.0
X367.0Y-165.0
X367.037Y-125.0
T2
X45.909Y-155.3
X46.609Y-151.3
X46.909Y-111.3
X47.109Y-130.8
X49.309Y-155.3
X50.009Y-151.3
X50.309Y-111.3
X50.509Y-130.8
X64.609Y-146.3
X64.809Y-150.8
X65.109Y-104.3
X65.109Y-125.3
X68.009Y-146.3
X68.209Y-150.8
X68.509Y-104.3
X68.509Y-125.3
X81.609Y-148.3
X83.109Y-142.8
X84.609Y-118.8
X85.009Y-148.3
X85.109Y-99.8
X86.509Y-142.8
X88.009Y-118.8
X88.509Y-99.8
X97.309Y-167.6
X97.309Y-171.0
X103.609Y-140.8
X103.609Y-146.3
X104.609Y-122.3
X105.609Y-102.8
X107.009Y-140.8
X107.009Y-146.3
X108.009Y-122.3
X109.009Y-102.8
X116.309Y-172.1
X116.309Y-175.5
X124.109Y-104.3
X124.309Y-124.8
X124.809Y-145.3
X124.809Y-150.8
X127.509Y-104.3
X127.709Y-124.8
X128.209Y-145.3
X128.209Y-150.8
X140.809Y-178.6
X140.809Y-182.0
X142.809Y-130.8
X143.109Y-149.8
X143.109Y-154.3
X143.309Y-110.8
X146.209Y-130.8
X146.509Y-149.8
X146.509Y-154.3
X146.709Y-110.8
X170.809Y-164.1
X170.809Y-167.5
X239.609Y-167.8
X243.009Y-167.8
X262.609Y-110.3
X263.109Y-130.2
X263.109Y-150.8
X263.109Y-153.35
X266.009Y-110.3
X266.509Y-130.2
X266.509Y-150.8
X266.509Y-153.35
X269.609Y-182.3
X273.009Y-182.3
X282.409Y-105.25
X282.409Y-124.75
X282.409Y-145.25
X282.409Y-147.8
X285.809Y-105.25
X285.809Y-124.75
X285.809Y-145.25
X285.809Y-147.8
X294.8Y-175.5
X298.2Y-175.5
X300.909Y-102.65
X301.609Y-142.75
X301.609Y-145.3
X302.109Y-122.2
X304.309Y-102.65
X305.009Y-142.75
X305.009Y-145.3
X305.509Y-122.2
X313.609Y-171.3
X317.009Y-171.3
X321.576Y-143.738
X321.609Y-100.3
X321.609Y-121.8
X321.609Y-140.8
X324.976Y-143.738
X325.009Y-100.3
X325.009Y-121.8
X325.009Y-140.8
X342.109Y-104.8
X342.109Y-125.3
X342.109Y-145.8
X342.109Y-148.35
X345.509Y-104.8
X345.509Y-125.3
X345.509Y-145.8
X345.509Y-148.35
X361.909Y-110.8
X362.109Y-132.3
X362.109Y-151.75
X362.109Y-154.3
X365.309Y-110.8
X365.509Y-132.3
X365.509Y-151.75
X365.509Y-154.3
T4
X173.189Y-151.8
X175.729Y-151.8
X178.269Y-151.8
X180.809Y-151.8
X230.509Y-151.8
X233.049Y-151.8
X235.589Y-151.8
X238.129Y-151.8
T3
G00X173.65Y-148.4
M15
G01X174.75Y-148.4
M16
G05
G00X175.15Y-144.2
M15
G01X176.25Y-144.2
M16
G05
G00X179.15Y-144.2
M15
G01X180.25Y-144.2
M16
G05
G00X182.15Y-144.2
M15
G01X183.25Y-144.2
M16
G05
G00X229.659Y-148.4
M15
G01X228.559Y-148.4
M16
G05
G00X232.659Y-148.4
M15
G01X231.559Y-148.4
M16
G05
G00X236.659Y-148.4
M15
G01X235.559Y-148.4
M16
G05
G00X238.159Y-144.2
M15
G01X237.059Y-144.2
M16
G05
M30
