M48
; DRILL file {KiCad 9.0.2} date 2026-01-08T05:14:24-0500
; FORMAT={-:-/ absolute / metric / decimal}
; #@! TF.CreationDate,2026-01-08T05:14:24-05:00
; #@! TF.GenerationSoftware,Kicad,Pcbnew,9.0.2
; #@! TF.FileFunction,NonPlated,1,2,NPTH
FMAT,2
METRIC
; #@! TA.AperFunction,NonPlated,NPTH,ComponentDrill
T1C1.200
; #@! TA.AperFunction,NonPlated,NPTH,ComponentDrill
T2C1.800
; #@! TA.AperFunction,NonPlated,NPTH,ComponentDrill
T3C3.000
; #@! TA.AperFunction,NonPlated,NPTH,ComponentDrill
T4C3.200
; #@! TA.AperFunction,NonPlated,NPTH,ComponentDrill
T5C5.100
%
G90
G05
T1
X177.5Y-146.3
X184.5Y-146.3
X227.309Y-146.3
X234.309Y-146.3
T2
X167.164Y-97.22
X167.164Y-137.86
X182.404Y-97.22
X182.404Y-137.86
X229.689Y-97.22
X229.689Y-137.86
X244.929Y-97.22
X244.929Y-137.86
T3
X50.071Y-105.85
X50.071Y-125.85
X50.071Y-145.85
X50.071Y-165.85
X57.071Y-104.8
X57.071Y-124.8
X57.071Y-144.8
X57.071Y-164.8
X70.071Y-98.85
X70.071Y-118.85
X70.071Y-139.35
X70.071Y-159.35
X77.071Y-97.8
X77.071Y-117.8
X77.071Y-138.3
X77.071Y-158.3
X90.209Y-153.05
X90.221Y-113.72
X90.221Y-133.298
X90.271Y-94.042
X97.209Y-152.0
X97.221Y-112.67
X97.221Y-132.248
X97.271Y-92.992
X100.087Y-176.406
X107.143Y-176.957
X110.071Y-96.85
X110.071Y-116.35
X110.071Y-135.85
X110.071Y-155.35
X117.071Y-95.8
X117.071Y-115.3
X117.071Y-134.8
X117.071Y-154.3
X118.313Y-180.886
X125.36Y-181.561
X129.709Y-99.55
X129.709Y-119.05
X129.709Y-138.55
X129.709Y-158.05
X136.709Y-98.5
X136.709Y-118.0
X136.709Y-137.5
X136.709Y-157.0
X143.768Y-187.205
X149.209Y-105.55
X149.209Y-125.05
X149.209Y-144.55
X149.209Y-164.05
X150.814Y-187.88
X156.209Y-104.5
X156.209Y-124.0
X156.209Y-143.5
X156.209Y-163.0
X173.327Y-172.782
X180.373Y-173.456
X233.699Y-174.24
X240.237Y-171.527
X257.662Y-105.75
X257.662Y-125.25
X257.662Y-144.75
X257.662Y-164.25
X263.258Y-188.663
X264.662Y-104.7
X264.662Y-124.2
X264.662Y-143.7
X264.662Y-163.2
X269.796Y-185.951
X277.162Y-99.75
X277.162Y-119.25
X277.162Y-138.75
X277.162Y-158.25
X284.162Y-98.7
X284.162Y-118.2
X284.162Y-137.7
X284.162Y-157.2
X288.712Y-182.344
X295.25Y-179.632
X296.8Y-97.05
X296.8Y-116.55
X296.8Y-136.05
X296.8Y-155.55
X303.8Y-96.0
X303.8Y-115.5
X303.8Y-135.0
X303.8Y-154.5
X308.368Y-177.208
X314.906Y-174.496
X316.601Y-94.242
X316.651Y-113.92
X316.651Y-133.498
X316.662Y-153.25
X323.601Y-93.192
X323.651Y-112.87
X323.651Y-132.448
X323.662Y-152.2
X336.8Y-99.05
X336.8Y-119.05
X336.8Y-139.55
X336.8Y-159.55
X343.8Y-98.0
X343.8Y-118.0
X343.8Y-138.5
X343.8Y-158.5
X356.8Y-106.05
X356.8Y-126.05
X356.8Y-146.05
X356.8Y-166.05
X363.8Y-105.0
X363.8Y-125.0
X363.8Y-145.0
X363.8Y-165.0
T4
X46.0Y-94.5
X46.0Y-136.5
X106.0Y-110.0
X137.5Y-167.0
X173.0Y-114.0
X238.5Y-117.0
X276.0Y-164.5
X312.0Y-108.0
X365.0Y-94.5
X366.0Y-139.0
T5
X52.671Y-100.1
X52.671Y-120.1
X52.671Y-140.1
X52.671Y-160.1
X72.671Y-93.1
X72.671Y-113.1
X72.671Y-133.6
X72.671Y-153.6
X92.809Y-147.3
X92.821Y-107.97
X92.821Y-127.548
X92.871Y-88.292
X103.913Y-171.388
X112.671Y-91.1
X112.671Y-110.6
X112.671Y-130.1
X112.671Y-149.6
X122.227Y-175.936
X132.309Y-93.8
X132.309Y-113.3
X132.309Y-132.8
X132.309Y-152.3
X147.682Y-182.255
X151.809Y-99.8
X151.809Y-119.3
X151.809Y-138.8
X151.809Y-158.3
X177.241Y-167.831
X234.83Y-168.031
X260.262Y-100.0
X260.262Y-119.5
X260.262Y-139.0
X260.262Y-158.5
X264.39Y-182.455
X279.762Y-94.0
X279.762Y-113.5
X279.762Y-133.0
X279.762Y-152.5
X289.844Y-176.136
X299.4Y-91.3
X299.4Y-110.8
X299.4Y-130.3
X299.4Y-149.8
X309.5Y-171.0
X319.201Y-88.492
X319.251Y-108.17
X319.251Y-127.748
X319.262Y-147.5
X339.4Y-93.3
X339.4Y-113.3
X339.4Y-133.8
X339.4Y-153.8
X359.4Y-100.3
X359.4Y-120.3
X359.4Y-140.3
X359.4Y-160.3
M30
