%TF.GenerationSoftware,KiCad,Pcbnew,9.0.2*%
%TF.CreationDate,2026-01-08T05:14:17-05:00*%
%TF.ProjectId,Athena_V1,41746865-6e61-45f5-9631-2e6b69636164,rev?*%
%TF.SameCoordinates,Original*%
%TF.FileFunction,Paste,Bot*%
%TF.FilePolarity,Positive*%
%FSLAX46Y46*%
G04 Gerber Fmt 4.6, Leading zero omitted, Abs format (unit mm)*
G04 Created by KiCad (PCBNEW 9.0.2) date 2026-01-08 05:14:17*
%MOMM*%
%LPD*%
G01*
G04 APERTURE LIST*
%ADD10O,2.997200X1.727200*%
%ADD11R,2.997200X1.727200*%
G04 APERTURE END LIST*
D10*
%TO.C,A\u002A\u002A*%
X184308920Y-102300000D03*
X184308920Y-127700000D03*
X184308920Y-107380000D03*
X184308920Y-109920000D03*
X184308920Y-112460000D03*
X184308920Y-115000000D03*
X184308920Y-117540000D03*
X184308920Y-120080000D03*
X184308920Y-122620000D03*
X184308920Y-125160000D03*
X184308920Y-104840000D03*
X165258920Y-132780000D03*
X165258920Y-135320000D03*
X165258920Y-125160000D03*
X165258920Y-122620000D03*
X165258920Y-120080000D03*
X165258920Y-117540000D03*
X165258920Y-115000000D03*
X165258920Y-112460000D03*
X165258920Y-109920000D03*
X165258920Y-107380000D03*
X165258920Y-104840000D03*
X165258920Y-102300000D03*
X165258920Y-99760000D03*
X184308920Y-99760000D03*
D11*
X165258920Y-127700000D03*
X184308920Y-132780000D03*
D10*
X165258920Y-130240000D03*
X184308920Y-130240000D03*
X184308920Y-135320000D03*
%TD*%
%TO.C,A\u002A\u002A*%
X246833920Y-102300000D03*
X246833920Y-127700000D03*
X246833920Y-107380000D03*
X246833920Y-109920000D03*
X246833920Y-112460000D03*
X246833920Y-115000000D03*
X246833920Y-117540000D03*
X246833920Y-120080000D03*
X246833920Y-122620000D03*
X246833920Y-125160000D03*
X246833920Y-104840000D03*
X227783920Y-132780000D03*
X227783920Y-135320000D03*
X227783920Y-125160000D03*
X227783920Y-122620000D03*
X227783920Y-120080000D03*
X227783920Y-117540000D03*
X227783920Y-115000000D03*
X227783920Y-112460000D03*
X227783920Y-109920000D03*
X227783920Y-107380000D03*
X227783920Y-104840000D03*
X227783920Y-102300000D03*
X227783920Y-99760000D03*
X246833920Y-99760000D03*
D11*
X227783920Y-127700000D03*
X246833920Y-132780000D03*
D10*
X227783920Y-130240000D03*
X246833920Y-130240000D03*
X246833920Y-135320000D03*
%TD*%
M02*
