%TF.GenerationSoftware,KiCad,Pcbnew,9.0.2*%
%TF.CreationDate,2026-01-08T05:14:17-05:00*%
%TF.ProjectId,Athena_V1,41746865-6e61-45f5-9631-2e6b69636164,rev?*%
%TF.SameCoordinates,Original*%
%TF.FileFunction,Legend,Bot*%
%TF.FilePolarity,Positive*%
%FSLAX46Y46*%
G04 Gerber Fmt 4.6, Leading zero omitted, Abs format (unit mm)*
G04 Created by KiCad (PCBNEW 9.0.2) date 2026-01-08 05:14:17*
%MOMM*%
%LPD*%
G01*
G04 APERTURE LIST*
%ADD10C,0.150000*%
%ADD11C,1.200000*%
G04 APERTURE END LIST*
D10*
X175783919Y-140569104D02*
X175307729Y-140569104D01*
X175879157Y-140854819D02*
X175545824Y-139854819D01*
X175545824Y-139854819D02*
X175212491Y-140854819D01*
X174736300Y-139854819D02*
X174736300Y-140092914D01*
X174974395Y-139997676D02*
X174736300Y-140092914D01*
X174736300Y-140092914D02*
X174498205Y-139997676D01*
X174879157Y-140283390D02*
X174736300Y-140092914D01*
X174736300Y-140092914D02*
X174593443Y-140283390D01*
X173974395Y-139854819D02*
X173974395Y-140092914D01*
X174212490Y-139997676D02*
X173974395Y-140092914D01*
X173974395Y-140092914D02*
X173736300Y-139997676D01*
X174117252Y-140283390D02*
X173974395Y-140092914D01*
X173974395Y-140092914D02*
X173831538Y-140283390D01*
X162264100Y-133518094D02*
X163264100Y-133518094D01*
X163264100Y-133518094D02*
X163264100Y-133279999D01*
X163264100Y-133279999D02*
X163216481Y-133137142D01*
X163216481Y-133137142D02*
X163121243Y-133041904D01*
X163121243Y-133041904D02*
X163026005Y-132994285D01*
X163026005Y-132994285D02*
X162835529Y-132946666D01*
X162835529Y-132946666D02*
X162692672Y-132946666D01*
X162692672Y-132946666D02*
X162502196Y-132994285D01*
X162502196Y-132994285D02*
X162406958Y-133041904D01*
X162406958Y-133041904D02*
X162311720Y-133137142D01*
X162311720Y-133137142D02*
X162264100Y-133279999D01*
X162264100Y-133279999D02*
X162264100Y-133518094D01*
X163264100Y-132327618D02*
X163264100Y-132232380D01*
X163264100Y-132232380D02*
X163216481Y-132137142D01*
X163216481Y-132137142D02*
X163168862Y-132089523D01*
X163168862Y-132089523D02*
X163073624Y-132041904D01*
X163073624Y-132041904D02*
X162883148Y-131994285D01*
X162883148Y-131994285D02*
X162645053Y-131994285D01*
X162645053Y-131994285D02*
X162454577Y-132041904D01*
X162454577Y-132041904D02*
X162359339Y-132089523D01*
X162359339Y-132089523D02*
X162311720Y-132137142D01*
X162311720Y-132137142D02*
X162264100Y-132232380D01*
X162264100Y-132232380D02*
X162264100Y-132327618D01*
X162264100Y-132327618D02*
X162311720Y-132422856D01*
X162311720Y-132422856D02*
X162359339Y-132470475D01*
X162359339Y-132470475D02*
X162454577Y-132518094D01*
X162454577Y-132518094D02*
X162645053Y-132565713D01*
X162645053Y-132565713D02*
X162883148Y-132565713D01*
X162883148Y-132565713D02*
X163073624Y-132518094D01*
X163073624Y-132518094D02*
X163168862Y-132470475D01*
X163168862Y-132470475D02*
X163216481Y-132422856D01*
X163216481Y-132422856D02*
X163264100Y-132327618D01*
X238308919Y-140569104D02*
X237832729Y-140569104D01*
X238404157Y-140854819D02*
X238070824Y-139854819D01*
X238070824Y-139854819D02*
X237737491Y-140854819D01*
X237261300Y-139854819D02*
X237261300Y-140092914D01*
X237499395Y-139997676D02*
X237261300Y-140092914D01*
X237261300Y-140092914D02*
X237023205Y-139997676D01*
X237404157Y-140283390D02*
X237261300Y-140092914D01*
X237261300Y-140092914D02*
X237118443Y-140283390D01*
X236499395Y-139854819D02*
X236499395Y-140092914D01*
X236737490Y-139997676D02*
X236499395Y-140092914D01*
X236499395Y-140092914D02*
X236261300Y-139997676D01*
X236642252Y-140283390D02*
X236499395Y-140092914D01*
X236499395Y-140092914D02*
X236356538Y-140283390D01*
X224789100Y-133518094D02*
X225789100Y-133518094D01*
X225789100Y-133518094D02*
X225789100Y-133279999D01*
X225789100Y-133279999D02*
X225741481Y-133137142D01*
X225741481Y-133137142D02*
X225646243Y-133041904D01*
X225646243Y-133041904D02*
X225551005Y-132994285D01*
X225551005Y-132994285D02*
X225360529Y-132946666D01*
X225360529Y-132946666D02*
X225217672Y-132946666D01*
X225217672Y-132946666D02*
X225027196Y-132994285D01*
X225027196Y-132994285D02*
X224931958Y-133041904D01*
X224931958Y-133041904D02*
X224836720Y-133137142D01*
X224836720Y-133137142D02*
X224789100Y-133279999D01*
X224789100Y-133279999D02*
X224789100Y-133518094D01*
X225789100Y-132327618D02*
X225789100Y-132232380D01*
X225789100Y-132232380D02*
X225741481Y-132137142D01*
X225741481Y-132137142D02*
X225693862Y-132089523D01*
X225693862Y-132089523D02*
X225598624Y-132041904D01*
X225598624Y-132041904D02*
X225408148Y-131994285D01*
X225408148Y-131994285D02*
X225170053Y-131994285D01*
X225170053Y-131994285D02*
X224979577Y-132041904D01*
X224979577Y-132041904D02*
X224884339Y-132089523D01*
X224884339Y-132089523D02*
X224836720Y-132137142D01*
X224836720Y-132137142D02*
X224789100Y-132232380D01*
X224789100Y-132232380D02*
X224789100Y-132327618D01*
X224789100Y-132327618D02*
X224836720Y-132422856D01*
X224836720Y-132422856D02*
X224884339Y-132470475D01*
X224884339Y-132470475D02*
X224979577Y-132518094D01*
X224979577Y-132518094D02*
X225170053Y-132565713D01*
X225170053Y-132565713D02*
X225408148Y-132565713D01*
X225408148Y-132565713D02*
X225598624Y-132518094D01*
X225598624Y-132518094D02*
X225693862Y-132470475D01*
X225693862Y-132470475D02*
X225741481Y-132422856D01*
X225741481Y-132422856D02*
X225789100Y-132327618D01*
X170454819Y-144966666D02*
X169978628Y-144633333D01*
X170454819Y-144395238D02*
X169454819Y-144395238D01*
X169454819Y-144395238D02*
X169454819Y-144776190D01*
X169454819Y-144776190D02*
X169502438Y-144871428D01*
X169502438Y-144871428D02*
X169550057Y-144919047D01*
X169550057Y-144919047D02*
X169645295Y-144966666D01*
X169645295Y-144966666D02*
X169788152Y-144966666D01*
X169788152Y-144966666D02*
X169883390Y-144919047D01*
X169883390Y-144919047D02*
X169931009Y-144871428D01*
X169931009Y-144871428D02*
X169978628Y-144776190D01*
X169978628Y-144776190D02*
X169978628Y-144395238D01*
X169931009Y-145395238D02*
X169931009Y-145728571D01*
X170454819Y-145871428D02*
X170454819Y-145395238D01*
X170454819Y-145395238D02*
X169454819Y-145395238D01*
X169454819Y-145395238D02*
X169454819Y-145871428D01*
X169931009Y-146633333D02*
X169931009Y-146300000D01*
X170454819Y-146300000D02*
X169454819Y-146300000D01*
X169454819Y-146300000D02*
X169454819Y-146776190D01*
X169454819Y-147300000D02*
X169692914Y-147300000D01*
X169597676Y-147061905D02*
X169692914Y-147300000D01*
X169692914Y-147300000D02*
X169597676Y-147538095D01*
X169883390Y-147157143D02*
X169692914Y-147300000D01*
X169692914Y-147300000D02*
X169883390Y-147442857D01*
X169454819Y-148061905D02*
X169692914Y-148061905D01*
X169597676Y-147823810D02*
X169692914Y-148061905D01*
X169692914Y-148061905D02*
X169597676Y-148300000D01*
X169883390Y-147919048D02*
X169692914Y-148061905D01*
X169692914Y-148061905D02*
X169883390Y-148204762D01*
X242263739Y-144966666D02*
X241787548Y-144633333D01*
X242263739Y-144395238D02*
X241263739Y-144395238D01*
X241263739Y-144395238D02*
X241263739Y-144776190D01*
X241263739Y-144776190D02*
X241311358Y-144871428D01*
X241311358Y-144871428D02*
X241358977Y-144919047D01*
X241358977Y-144919047D02*
X241454215Y-144966666D01*
X241454215Y-144966666D02*
X241597072Y-144966666D01*
X241597072Y-144966666D02*
X241692310Y-144919047D01*
X241692310Y-144919047D02*
X241739929Y-144871428D01*
X241739929Y-144871428D02*
X241787548Y-144776190D01*
X241787548Y-144776190D02*
X241787548Y-144395238D01*
X241739929Y-145395238D02*
X241739929Y-145728571D01*
X242263739Y-145871428D02*
X242263739Y-145395238D01*
X242263739Y-145395238D02*
X241263739Y-145395238D01*
X241263739Y-145395238D02*
X241263739Y-145871428D01*
X241739929Y-146633333D02*
X241739929Y-146300000D01*
X242263739Y-146300000D02*
X241263739Y-146300000D01*
X241263739Y-146300000D02*
X241263739Y-146776190D01*
X241263739Y-147300000D02*
X241501834Y-147300000D01*
X241406596Y-147061905D02*
X241501834Y-147300000D01*
X241501834Y-147300000D02*
X241406596Y-147538095D01*
X241692310Y-147157143D02*
X241501834Y-147300000D01*
X241501834Y-147300000D02*
X241692310Y-147442857D01*
X241263739Y-148061905D02*
X241501834Y-148061905D01*
X241406596Y-147823810D02*
X241501834Y-148061905D01*
X241501834Y-148061905D02*
X241406596Y-148300000D01*
X241692310Y-147919048D02*
X241501834Y-148061905D01*
X241501834Y-148061905D02*
X241692310Y-148204762D01*
%TO.C,J3*%
X229238920Y-150530000D02*
X239398920Y-150530000D01*
X229238920Y-153070000D02*
X229238920Y-150530000D01*
X239398920Y-150530000D02*
X239398920Y-153070000D01*
X239398920Y-153070000D02*
X229238920Y-153070000D01*
%TO.C,D31*%
X363308920Y-153600000D02*
X363308920Y-155000000D01*
X363308920Y-154300000D02*
X364208920Y-153600000D01*
X364208920Y-153600000D02*
X364208920Y-155000000D01*
X364208920Y-155000000D02*
X363308920Y-154300000D01*
%TO.C,D28*%
X363108920Y-110100000D02*
X363108920Y-111500000D01*
X363108920Y-110800000D02*
X364008920Y-110100000D01*
X364008920Y-110100000D02*
X364008920Y-111500000D01*
X364008920Y-111500000D02*
X363108920Y-110800000D01*
%TO.C,D74*%
X125508920Y-124100000D02*
X125508920Y-125500000D01*
X125508920Y-124800000D02*
X126408920Y-124100000D01*
X126408920Y-124100000D02*
X126408920Y-125500000D01*
X126408920Y-125500000D02*
X125508920Y-124800000D01*
%TO.C,D18*%
X322808920Y-99600000D02*
X322808920Y-101000000D01*
X322808920Y-100300000D02*
X323708920Y-99600000D01*
X323708920Y-99600000D02*
X323708920Y-101000000D01*
X323708920Y-101000000D02*
X322808920Y-100300000D01*
%TO.C,D32*%
X314808920Y-170600000D02*
X314808920Y-172000000D01*
X314808920Y-171300000D02*
X315708920Y-170600000D01*
X315708920Y-170600000D02*
X315708920Y-172000000D01*
X315708920Y-172000000D02*
X314808920Y-171300000D01*
%TO.C,D2*%
X115608920Y-174200000D02*
X116308920Y-173300000D01*
X116308920Y-173300000D02*
X117008920Y-174200000D01*
X117008920Y-173300000D02*
X115608920Y-173300000D01*
X117008920Y-174200000D02*
X115608920Y-174200000D01*
%TO.C,D80*%
X144308920Y-153600000D02*
X144308920Y-155000000D01*
X144308920Y-154300000D02*
X145208920Y-153600000D01*
X145208920Y-153600000D02*
X145208920Y-155000000D01*
X145208920Y-155000000D02*
X144308920Y-154300000D01*
%TO.C,D1*%
X96608920Y-168900000D02*
X98008920Y-168900000D01*
X96608920Y-169800000D02*
X98008920Y-169800000D01*
X97308920Y-169800000D02*
X96608920Y-168900000D01*
X98008920Y-168900000D02*
X97308920Y-169800000D01*
%TO.C,D19*%
X322808920Y-121100000D02*
X322808920Y-122500000D01*
X322808920Y-121800000D02*
X323708920Y-121100000D01*
X323708920Y-121100000D02*
X323708920Y-122500000D01*
X323708920Y-122500000D02*
X322808920Y-121800000D01*
%TO.C,D8*%
X264308920Y-152650000D02*
X264308920Y-154050000D01*
X264308920Y-153350000D02*
X265208920Y-152650000D01*
X265208920Y-152650000D02*
X265208920Y-154050000D01*
X265208920Y-154050000D02*
X264308920Y-153350000D01*
%TO.C,D70*%
X105808920Y-121600000D02*
X105808920Y-123000000D01*
X105808920Y-122300000D02*
X106708920Y-121600000D01*
X106708920Y-121600000D02*
X106708920Y-123000000D01*
X106708920Y-123000000D02*
X105808920Y-122300000D01*
%TO.C,D58*%
X48408920Y-130100000D02*
X49308920Y-130800000D01*
X48408920Y-131500000D02*
X48408920Y-130100000D01*
X49308920Y-130800000D02*
X48408920Y-131500000D01*
X49308920Y-131500000D02*
X49308920Y-130100000D01*
%TO.C,D57*%
X48208920Y-110600000D02*
X49108920Y-111300000D01*
X48208920Y-112000000D02*
X48208920Y-110600000D01*
X49108920Y-111300000D02*
X48208920Y-112000000D01*
X49108920Y-112000000D02*
X49108920Y-110600000D01*
%TO.C,D61*%
X66308920Y-103600000D02*
X66308920Y-105000000D01*
X66308920Y-104300000D02*
X67208920Y-103600000D01*
X67208920Y-103600000D02*
X67208920Y-105000000D01*
X67208920Y-105000000D02*
X66308920Y-104300000D01*
%TO.C,D25*%
X343308920Y-145100000D02*
X343308920Y-146500000D01*
X343308920Y-145800000D02*
X344208920Y-145100000D01*
X344208920Y-145100000D02*
X344208920Y-146500000D01*
X344208920Y-146500000D02*
X343308920Y-145800000D01*
%TO.C,D77*%
X144508920Y-110100000D02*
X144508920Y-111500000D01*
X144508920Y-110800000D02*
X145408920Y-110100000D01*
X145408920Y-110100000D02*
X145408920Y-111500000D01*
X145408920Y-111500000D02*
X144508920Y-110800000D01*
%TO.C,D29*%
X363308920Y-131600000D02*
X363308920Y-133000000D01*
X363308920Y-132300000D02*
X364208920Y-131600000D01*
X364208920Y-131600000D02*
X364208920Y-133000000D01*
X364208920Y-133000000D02*
X363308920Y-132300000D01*
%TO.C,D11*%
X283608920Y-144550000D02*
X283608920Y-145950000D01*
X283608920Y-145250000D02*
X284508920Y-144550000D01*
X284508920Y-144550000D02*
X284508920Y-145950000D01*
X284508920Y-145950000D02*
X283608920Y-145250000D01*
%TO.C,D72*%
X104808920Y-145600000D02*
X104808920Y-147000000D01*
X104808920Y-146300000D02*
X105708920Y-145600000D01*
X105708920Y-145600000D02*
X105708920Y-147000000D01*
X105708920Y-147000000D02*
X104808920Y-146300000D01*
%TO.C,D73*%
X125308920Y-103600000D02*
X125308920Y-105000000D01*
X125308920Y-104300000D02*
X126208920Y-103600000D01*
X126208920Y-103600000D02*
X126208920Y-105000000D01*
X126208920Y-105000000D02*
X125308920Y-104300000D01*
%TO.C,D63*%
X65808920Y-145600000D02*
X65808920Y-147000000D01*
X65808920Y-146300000D02*
X66708920Y-145600000D01*
X66708920Y-145600000D02*
X66708920Y-147000000D01*
X66708920Y-147000000D02*
X65808920Y-146300000D01*
%TO.C,D6*%
X264308920Y-129500000D02*
X264308920Y-130900000D01*
X264308920Y-130200000D02*
X265208920Y-129500000D01*
X265208920Y-129500000D02*
X265208920Y-130900000D01*
X265208920Y-130900000D02*
X264308920Y-130200000D01*
%TO.C,D26*%
X343308920Y-147650000D02*
X343308920Y-149050000D01*
X343308920Y-148350000D02*
X344208920Y-147650000D01*
X344208920Y-147650000D02*
X344208920Y-149050000D01*
X344208920Y-149050000D02*
X343308920Y-148350000D01*
%TO.C,D65*%
X86308920Y-99100000D02*
X86308920Y-100500000D01*
X86308920Y-99800000D02*
X87208920Y-99100000D01*
X87208920Y-99100000D02*
X87208920Y-100500000D01*
X87208920Y-100500000D02*
X86308920Y-99800000D01*
%TO.C,D7*%
X264308920Y-150100000D02*
X264308920Y-151500000D01*
X264308920Y-150800000D02*
X265208920Y-150100000D01*
X265208920Y-150100000D02*
X265208920Y-151500000D01*
X265208920Y-151500000D02*
X264308920Y-150800000D01*
%TO.C,D12*%
X283608920Y-147100000D02*
X283608920Y-148500000D01*
X283608920Y-147800000D02*
X284508920Y-147100000D01*
X284508920Y-147100000D02*
X284508920Y-148500000D01*
X284508920Y-148500000D02*
X283608920Y-147800000D01*
%TO.C,D15*%
X302808920Y-142050000D02*
X302808920Y-143450000D01*
X302808920Y-142750000D02*
X303708920Y-142050000D01*
X303708920Y-142050000D02*
X303708920Y-143450000D01*
X303708920Y-143450000D02*
X302808920Y-142750000D01*
%TO.C,D13*%
X302108920Y-101950000D02*
X302108920Y-103350000D01*
X302108920Y-102650000D02*
X303008920Y-101950000D01*
X303008920Y-101950000D02*
X303008920Y-103350000D01*
X303008920Y-103350000D02*
X302108920Y-102650000D01*
%TO.C,D66*%
X85808920Y-118100000D02*
X85808920Y-119500000D01*
X85808920Y-118800000D02*
X86708920Y-118100000D01*
X86708920Y-118100000D02*
X86708920Y-119500000D01*
X86708920Y-119500000D02*
X85808920Y-118800000D01*
%TO.C,D23*%
X343308920Y-104100000D02*
X343308920Y-105500000D01*
X343308920Y-104800000D02*
X344208920Y-104100000D01*
X344208920Y-104100000D02*
X344208920Y-105500000D01*
X344208920Y-105500000D02*
X343308920Y-104800000D01*
%TO.C,D75*%
X126008920Y-144600000D02*
X126008920Y-146000000D01*
X126008920Y-145300000D02*
X126908920Y-144600000D01*
X126908920Y-144600000D02*
X126908920Y-146000000D01*
X126908920Y-146000000D02*
X126008920Y-145300000D01*
%TO.C,D5*%
X263808920Y-109600000D02*
X263808920Y-111000000D01*
X263808920Y-110300000D02*
X264708920Y-109600000D01*
X264708920Y-109600000D02*
X264708920Y-111000000D01*
X264708920Y-111000000D02*
X263808920Y-110300000D01*
%TO.C,D79*%
X144308920Y-149100000D02*
X144308920Y-150500000D01*
X144308920Y-149800000D02*
X145208920Y-149100000D01*
X145208920Y-149100000D02*
X145208920Y-150500000D01*
X145208920Y-150500000D02*
X144308920Y-149800000D01*
%TO.C,D69*%
X106808920Y-102100000D02*
X106808920Y-103500000D01*
X106808920Y-102800000D02*
X107708920Y-102100000D01*
X107708920Y-102100000D02*
X107708920Y-103500000D01*
X107708920Y-103500000D02*
X106808920Y-102800000D01*
%TO.C,D60*%
X66008920Y-150100000D02*
X66008920Y-151500000D01*
X66008920Y-150800000D02*
X66908920Y-150100000D01*
X66908920Y-150100000D02*
X66908920Y-151500000D01*
X66908920Y-151500000D02*
X66008920Y-150800000D01*
%TO.C,D68*%
X82808920Y-147600000D02*
X82808920Y-149000000D01*
X82808920Y-148300000D02*
X83708920Y-147600000D01*
X83708920Y-147600000D02*
X83708920Y-149000000D01*
X83708920Y-149000000D02*
X82808920Y-148300000D01*
%TO.C,D14*%
X303308920Y-121500000D02*
X303308920Y-122900000D01*
X303308920Y-122200000D02*
X304208920Y-121500000D01*
X304208920Y-121500000D02*
X304208920Y-122900000D01*
X304208920Y-122900000D02*
X303308920Y-122200000D01*
%TO.C,D3*%
X140108920Y-180700000D02*
X140808920Y-179800000D01*
X140808920Y-179800000D02*
X141508920Y-180700000D01*
X141508920Y-179800000D02*
X140108920Y-179800000D01*
X141508920Y-180700000D02*
X140108920Y-180700000D01*
%TO.C,J3*%
X171918920Y-150530000D02*
X182078920Y-150530000D01*
X171918920Y-153070000D02*
X171918920Y-150530000D01*
X182078920Y-150530000D02*
X182078920Y-153070000D01*
X182078920Y-153070000D02*
X171918920Y-153070000D01*
%TO.C,D9*%
X283608920Y-104550000D02*
X283608920Y-105950000D01*
X283608920Y-105250000D02*
X284508920Y-104550000D01*
X284508920Y-104550000D02*
X284508920Y-105950000D01*
X284508920Y-105950000D02*
X283608920Y-105250000D01*
%TO.C,D27*%
X296000000Y-174800000D02*
X296000000Y-176200000D01*
X296000000Y-175500000D02*
X296900000Y-174800000D01*
X296900000Y-174800000D02*
X296900000Y-176200000D01*
X296900000Y-176200000D02*
X296000000Y-175500000D01*
%TO.C,D59*%
X47908920Y-150600000D02*
X48808920Y-151300000D01*
X47908920Y-152000000D02*
X47908920Y-150600000D01*
X48808920Y-151300000D02*
X47908920Y-152000000D01*
X48808920Y-152000000D02*
X48808920Y-150600000D01*
%TO.C,D30*%
X363308920Y-151050000D02*
X363308920Y-152450000D01*
X363308920Y-151750000D02*
X364208920Y-151050000D01*
X364208920Y-151050000D02*
X364208920Y-152450000D01*
X364208920Y-152450000D02*
X363308920Y-151750000D01*
%TO.C,D22*%
X270808920Y-181600000D02*
X270808920Y-183000000D01*
X270808920Y-182300000D02*
X271708920Y-181600000D01*
X271708920Y-181600000D02*
X271708920Y-183000000D01*
X271708920Y-183000000D02*
X270808920Y-182300000D01*
%TO.C,D62*%
X66308920Y-124600000D02*
X66308920Y-126000000D01*
X66308920Y-125300000D02*
X67208920Y-124600000D01*
X67208920Y-124600000D02*
X67208920Y-126000000D01*
X67208920Y-126000000D02*
X66308920Y-125300000D01*
%TO.C,D24*%
X343308920Y-124600000D02*
X343308920Y-126000000D01*
X343308920Y-125300000D02*
X344208920Y-124600000D01*
X344208920Y-124600000D02*
X344208920Y-126000000D01*
X344208920Y-126000000D02*
X343308920Y-125300000D01*
%TO.C,D4*%
X170108920Y-166200000D02*
X170808920Y-165300000D01*
X170808920Y-165300000D02*
X171508920Y-166200000D01*
X171508920Y-165300000D02*
X170108920Y-165300000D01*
X171508920Y-166200000D02*
X170108920Y-166200000D01*
%TO.C,D20*%
X322808920Y-140100000D02*
X322808920Y-141500000D01*
X322808920Y-140800000D02*
X323708920Y-140100000D01*
X323708920Y-140100000D02*
X323708920Y-141500000D01*
X323708920Y-141500000D02*
X322808920Y-140800000D01*
%TO.C,D64*%
X47208920Y-154600000D02*
X48108920Y-155300000D01*
X47208920Y-156000000D02*
X47208920Y-154600000D01*
X48108920Y-155300000D02*
X47208920Y-156000000D01*
X48108920Y-156000000D02*
X48108920Y-154600000D01*
%TO.C,D78*%
X144008920Y-130100000D02*
X144008920Y-131500000D01*
X144008920Y-130800000D02*
X144908920Y-130100000D01*
X144908920Y-130100000D02*
X144908920Y-131500000D01*
X144908920Y-131500000D02*
X144008920Y-130800000D01*
%TO.C,D67*%
X84308920Y-142100000D02*
X84308920Y-143500000D01*
X84308920Y-142800000D02*
X85208920Y-142100000D01*
X85208920Y-142100000D02*
X85208920Y-143500000D01*
X85208920Y-143500000D02*
X84308920Y-142800000D01*
%TO.C,D71*%
X104808920Y-140100000D02*
X104808920Y-141500000D01*
X104808920Y-140800000D02*
X105708920Y-140100000D01*
X105708920Y-140100000D02*
X105708920Y-141500000D01*
X105708920Y-141500000D02*
X104808920Y-140800000D01*
%TO.C,D10*%
X283608920Y-124050000D02*
X283608920Y-125450000D01*
X283608920Y-124750000D02*
X284508920Y-124050000D01*
X284508920Y-124050000D02*
X284508920Y-125450000D01*
X284508920Y-125450000D02*
X283608920Y-124750000D01*
%TO.C,D76*%
X126008920Y-150100000D02*
X126008920Y-151500000D01*
X126008920Y-150800000D02*
X126908920Y-150100000D01*
X126908920Y-150100000D02*
X126908920Y-151500000D01*
X126908920Y-151500000D02*
X126008920Y-150800000D01*
%TO.C,D17*%
X240808920Y-167100000D02*
X240808920Y-168500000D01*
X240808920Y-167800000D02*
X241708920Y-167100000D01*
X241708920Y-167100000D02*
X241708920Y-168500000D01*
X241708920Y-168500000D02*
X240808920Y-167800000D01*
%TO.C,D16*%
X302808920Y-144600000D02*
X302808920Y-146000000D01*
X302808920Y-145300000D02*
X303708920Y-144600000D01*
X303708920Y-144600000D02*
X303708920Y-146000000D01*
X303708920Y-146000000D02*
X302808920Y-145300000D01*
%TO.C,D21*%
X322776320Y-143037591D02*
X322776320Y-144437591D01*
X322776320Y-143737591D02*
X323676320Y-143037591D01*
X323676320Y-143037591D02*
X323676320Y-144437591D01*
X323676320Y-144437591D02*
X322776320Y-143737591D01*
%TO.C,A\u002A\u002A*%
X165893920Y-95950000D02*
X183673920Y-95950000D01*
X165893920Y-98642400D02*
X165893920Y-95950000D01*
X165893920Y-101182400D02*
X165893920Y-100877600D01*
X165893920Y-103722400D02*
X165893920Y-103417600D01*
X165893920Y-106262400D02*
X165893920Y-105957600D01*
X165893920Y-108802400D02*
X165893920Y-108497600D01*
X165893920Y-111342400D02*
X165893920Y-111037600D01*
X165893920Y-113882400D02*
X165893920Y-113577600D01*
X165893920Y-116422400D02*
X165893920Y-116117600D01*
X165893920Y-118962400D02*
X165893920Y-118657600D01*
X165893920Y-121502400D02*
X165893920Y-121197600D01*
X165893920Y-124042400D02*
X165893920Y-123737600D01*
X165893920Y-126582400D02*
X165893920Y-126277600D01*
X165893920Y-129122400D02*
X165893920Y-128817600D01*
X165893920Y-131662400D02*
X165893920Y-131357600D01*
X165893920Y-134202400D02*
X165893920Y-133897600D01*
X165893920Y-139130000D02*
X165893920Y-136437600D01*
X165893920Y-139130000D02*
X183673920Y-139130000D01*
X183673920Y-98642400D02*
X183673920Y-95950000D01*
X183673920Y-101182400D02*
X183673920Y-100877600D01*
X183673920Y-103722400D02*
X183673920Y-103417600D01*
X183673920Y-106262400D02*
X183673920Y-105957600D01*
X183673920Y-108802400D02*
X183673920Y-108497600D01*
X183673920Y-111342400D02*
X183673920Y-111037600D01*
X183673920Y-113882400D02*
X183673920Y-113577600D01*
X183673920Y-116422400D02*
X183673920Y-116117600D01*
X183673920Y-118962400D02*
X183673920Y-118657600D01*
X183673920Y-121502400D02*
X183673920Y-121197600D01*
X183673920Y-124042400D02*
X183673920Y-123737600D01*
X183673920Y-126582400D02*
X183673920Y-126277600D01*
X183673920Y-129122400D02*
X183673920Y-128817600D01*
X183673920Y-131662400D02*
X183673920Y-131357600D01*
X183673920Y-134202400D02*
X183673920Y-133897600D01*
X183673920Y-139130000D02*
X183673920Y-136437600D01*
X228418920Y-95950000D02*
X246198920Y-95950000D01*
X228418920Y-98642400D02*
X228418920Y-95950000D01*
X228418920Y-101182400D02*
X228418920Y-100877600D01*
X228418920Y-103722400D02*
X228418920Y-103417600D01*
X228418920Y-106262400D02*
X228418920Y-105957600D01*
X228418920Y-108802400D02*
X228418920Y-108497600D01*
X228418920Y-111342400D02*
X228418920Y-111037600D01*
X228418920Y-113882400D02*
X228418920Y-113577600D01*
X228418920Y-116422400D02*
X228418920Y-116117600D01*
X228418920Y-118962400D02*
X228418920Y-118657600D01*
X228418920Y-121502400D02*
X228418920Y-121197600D01*
X228418920Y-124042400D02*
X228418920Y-123737600D01*
X228418920Y-126582400D02*
X228418920Y-126277600D01*
X228418920Y-129122400D02*
X228418920Y-128817600D01*
X228418920Y-131662400D02*
X228418920Y-131357600D01*
X228418920Y-134202400D02*
X228418920Y-133897600D01*
X228418920Y-139130000D02*
X228418920Y-136437600D01*
X228418920Y-139130000D02*
X246198920Y-139130000D01*
X246198920Y-98642400D02*
X246198920Y-95950000D01*
X246198920Y-101182400D02*
X246198920Y-100877600D01*
X246198920Y-103722400D02*
X246198920Y-103417600D01*
X246198920Y-106262400D02*
X246198920Y-105957600D01*
X246198920Y-108802400D02*
X246198920Y-108497600D01*
X246198920Y-111342400D02*
X246198920Y-111037600D01*
X246198920Y-113882400D02*
X246198920Y-113577600D01*
X246198920Y-116422400D02*
X246198920Y-116117600D01*
X246198920Y-118962400D02*
X246198920Y-118657600D01*
X246198920Y-121502400D02*
X246198920Y-121197600D01*
X246198920Y-124042400D02*
X246198920Y-123737600D01*
X246198920Y-126582400D02*
X246198920Y-126277600D01*
X246198920Y-129122400D02*
X246198920Y-128817600D01*
X246198920Y-131662400D02*
X246198920Y-131357600D01*
X246198920Y-134202400D02*
X246198920Y-133897600D01*
X246198920Y-139130000D02*
X246198920Y-136437600D01*
%TO.C,REF\u002A\u002A*%
X174000000Y-143300000D02*
X174000000Y-149300000D01*
X174000000Y-149300000D02*
X186000000Y-149300000D01*
X186000000Y-143300000D02*
X174000000Y-143300000D01*
X186000000Y-143300000D02*
X186000000Y-143800000D01*
X186000000Y-143800000D02*
X187900000Y-143800000D01*
X186000000Y-148800000D02*
X187900000Y-148800000D01*
X186000000Y-149300000D02*
X186000000Y-148800000D01*
X187900000Y-148800000D02*
X187900000Y-143800000D01*
X223908920Y-143800000D02*
X223908920Y-148800000D01*
X225808920Y-143300000D02*
X225808920Y-143800000D01*
X225808920Y-143800000D02*
X223908920Y-143800000D01*
X225808920Y-148800000D02*
X223908920Y-148800000D01*
X225808920Y-149300000D02*
X225808920Y-148800000D01*
X225808920Y-149300000D02*
X237808920Y-149300000D01*
X237808920Y-143300000D02*
X225808920Y-143300000D01*
X237808920Y-149300000D02*
X237808920Y-143300000D01*
%TD*%
D11*
%TO.C,REF\u002A\u002A*%
X177500000Y-146300000D03*
X184500000Y-146300000D03*
%TD*%
%TO.C,REF\u002A\u002A*%
X234308920Y-146300000D03*
X227308920Y-146300000D03*
%TD*%
M02*
